<svg style="position: absolute; width: 0; height: 0; overflow: hidden;" version="1.1" xmlns="http://www.w3.org/2000/svg" xmlns:xlink="http://www.w3.org/1999/xlink">
<defs>
<symbol id="icon-benefits" viewBox="0 0 32 32">
	<title>benefits</title>
	<path fill="none" stroke="#00a2dc" stroke-width="1.0667" stroke-miterlimit="4" stroke-linecap="round" stroke-linejoin="round" style="stroke: var(--color1, #00a2dc)" d="M22.667 11.333l-10 9.333-3.333-3.333"></path>
	<path fill="none" stroke="#00a2dc" stroke-width="1.0667" stroke-miterlimit="4" stroke-linecap="round" stroke-linejoin="round" style="stroke: var(--color1, #00a2dc)" d="M31.333 16c0 8.469-6.867 15.333-15.333 15.333-8.471 0-15.333-6.864-15.333-15.333s6.863-15.333 15.333-15.333c8.467 0 15.333 6.864 15.333 15.333z"></path>
</symbol>
<symbol id="icon-contact" viewBox="0 0 66 32">
	<title>contact</title>
	<path fill="none" stroke="#00a2dc" stroke-width="1.0323" stroke-miterlimit="4" stroke-linecap="round" stroke-linejoin="round" style="stroke: var(--color1, #00a2dc)" d="M29.307 26.121c0 1.115-0.905 2.020-2.020 2.020h-24.236c-1.115 0-2.020-0.905-2.020-2.020v-14.811c0-1.116 0.905-2.020 2.020-2.020h24.236c1.115 0 2.020 0.903 2.020 2.020v14.811z"></path>
	<path fill="none" stroke="#00a2dc" stroke-width="1.0323" stroke-miterlimit="4" stroke-linecap="round" stroke-linejoin="round" style="stroke: var(--color1, #00a2dc)" d="M28.993 9.29l-13.464 10.771-13.464-10.771"></path>
	<path fill="none" stroke="#00a2dc" stroke-width="1.0323" stroke-miterlimit="4" stroke-linecap="round" stroke-linejoin="round" style="stroke: var(--color1, #00a2dc)" d="M45.984 9.651c1.214-1.216 1.214-3.188 0-4.404l-3.304-3.304c-1.216-1.214-3.188-1.214-4.406 0l-1.81 1.812c-1.573 1.574-1.816 4.024-0.591 5.878 5.263 7.956 12.285 14.979 20.242 20.242 1.851 1.224 4.311 0.98 5.879-0.59l1.811-1.812c1.217-1.216 1.217-3.187 0-4.403l-3.303-3.303c-1.214-1.217-3.187-1.217-4.404 0l-1.101 1.101c-3.622-2.969-7.147-6.495-10.114-10.118l1.101-1.1z"></path>
</symbol>
<symbol id="icon-faq" viewBox="0 0 32 32">
	<title>faq</title>
	<path fill="none" stroke="#00a2dc" stroke-width="1.0667" stroke-miterlimit="4" stroke-linecap="round" stroke-linejoin="round" style="stroke: var(--color1, #00a2dc)" d="M31.304 16c0 8.452-6.852 15.304-15.304 15.304s-15.304-6.852-15.304-15.304c0-8.452 6.852-15.304 15.304-15.304s15.304 6.852 15.304 15.304z"></path>
	<path fill="none" stroke="#00a2dc" stroke-width="1.0667" stroke-miterlimit="4" stroke-linecap="round" stroke-linejoin="round" style="stroke: var(--color1, #00a2dc)" d="M11.826 12.522c0-2.304 1.869-4.174 4.174-4.174 2.304 0 4.174 1.87 4.174 4.174 0 2.307-1.87 4.174-4.174 4.174v4.174"></path>
	<path fill="none" stroke="#00a2dc" stroke-width="1.0667" stroke-miterlimit="4" stroke-linecap="butt" stroke-linejoin="round" style="stroke: var(--color1, #00a2dc)" d="M16.696 24.348c0 0.384-0.312 0.696-0.696 0.696s-0.696-0.312-0.696-0.696c0-0.384 0.312-0.696 0.696-0.696s0.696 0.312 0.696 0.696z"></path>
</symbol>
<symbol id="icon-history" viewBox="0 0 24 32">
	<title>history</title>
	<path fill="none" stroke="#00a2dc" stroke-width="1.1034" stroke-miterlimit="4" stroke-linecap="round" stroke-linejoin="round" style="stroke: var(--color1, #00a2dc)" d="M20.524 7.283c0 4.754-3.856 8.607-8.607 8.607-4.756 0-8.607-3.853-8.607-8.607v-6.621h17.214v6.621z"></path>
	<path fill="none" stroke="#00a2dc" stroke-width="1.1034" stroke-miterlimit="4" stroke-linecap="round" stroke-linejoin="round" style="stroke: var(--color1, #00a2dc)" d="M20.524 24.497c0-4.752-3.856-8.607-8.607-8.607-4.756 0-8.607 3.855-8.607 8.607v6.621h17.214v-6.621z"></path>
	<path fill="none" stroke="#00a2dc" stroke-width="1.1034" stroke-miterlimit="4" stroke-linecap="round" stroke-linejoin="round" style="stroke: var(--color1, #00a2dc)" d="M0.662 0.662h22.51"></path>
	<path fill="none" stroke="#00a2dc" stroke-width="1.1034" stroke-miterlimit="4" stroke-linecap="round" stroke-linejoin="round" style="stroke: var(--color1, #00a2dc)" d="M0.662 31.117h22.51"></path>
	<path fill="none" stroke="#00a2dc" stroke-width="1.1034" stroke-miterlimit="4" stroke-linecap="round" stroke-linejoin="round" style="stroke: var(--color1, #00a2dc)" d="M3.31 25.821h4.634l3.972-3.972 3.972 3.972h4.634"></path>
	<path fill="none" stroke="#00a2dc" stroke-width="1.1034" stroke-miterlimit="4" stroke-linecap="round" stroke-linejoin="round" style="stroke: var(--color1, #00a2dc)" d="M5.158 12.579h13.518"></path>
</symbol>
<symbol id="icon-map" viewBox="0 0 32 32">
	<title>map</title>
	<path fill="none" stroke="#00a2dc" stroke-width="1.0667" stroke-miterlimit="4" stroke-linecap="round" stroke-linejoin="round" style="stroke: var(--color1, #00a2dc)" d="M19.333 4.667c0 2.209-1.791 4-4 4s-4-1.791-4-4c0-2.209 1.791-4 4-4s4 1.791 4 4z"></path>
	<path fill="none" stroke="#00a2dc" stroke-width="1.0667" stroke-miterlimit="4" stroke-linecap="round" stroke-linejoin="round" style="stroke: var(--color1, #00a2dc)" d="M14.933 8.667v14"></path>
	<path fill="none" stroke="#00a2dc" stroke-width="1.0667" stroke-miterlimit="4" stroke-linecap="round" stroke-linejoin="round" style="stroke: var(--color1, #00a2dc)" d="M11.333 16.371l-1.333 0.296-9.333-2.667v14.667l9.333 2.667 12-2.667 9.333 2.667v-14.667l-9.333-2.667-2.667 0.593"></path>
	<path fill="none" stroke="#00a2dc" stroke-width="1.0667" stroke-miterlimit="4" stroke-linecap="butt" stroke-linejoin="round" style="stroke: var(--color1, #00a2dc)" d="M9.6 16.667v14.667"></path>
	<path fill="none" stroke="#00a2dc" stroke-width="1.0667" stroke-miterlimit="4" stroke-linecap="butt" stroke-linejoin="round" style="stroke: var(--color1, #00a2dc)" d="M21.333 14v14.667"></path>
	<path fill="none" stroke="#00a2dc" stroke-width="1.0667" stroke-miterlimit="4" stroke-linecap="round" stroke-linejoin="round" style="stroke: var(--color1, #00a2dc)" d="M15.333 3.333c0.736 0 1.333 0.597 1.333 1.333"></path>
</symbol>
<symbol id="icon-owner-info" viewBox="0 0 32 32">
	<title>owner-info</title>
	<path fill="none" stroke="#00a2dc" stroke-width="1.0667" stroke-miterlimit="4" stroke-linecap="butt" stroke-linejoin="round" style="stroke: var(--color1, #00a2dc)" d="M0.667 31.333h30.667v-30.667h-30.667z"></path>
	<path fill="none" stroke="#00a2dc" stroke-width="1.0667" stroke-miterlimit="4" stroke-linecap="round" stroke-linejoin="round" style="stroke: var(--color1, #00a2dc)" d="M4.667 10l2.667 2.667 6.667-6.667"></path>
	<path fill="none" stroke="#00a2dc" stroke-width="1.0667" stroke-miterlimit="4" stroke-linecap="round" stroke-linejoin="round" style="stroke: var(--color1, #00a2dc)" d="M4.667 22l2.667 2.667 6.667-6.667"></path>
	<path fill="none" stroke="#00a2dc" stroke-width="1.0667" stroke-miterlimit="4" stroke-linecap="round" stroke-linejoin="round" style="stroke: var(--color1, #00a2dc)" d="M16.667 11.333h10.667"></path>
	<path fill="none" stroke="#00a2dc" stroke-width="1.0667" stroke-miterlimit="4" stroke-linecap="round" stroke-linejoin="round" style="stroke: var(--color1, #00a2dc)" d="M16.667 23.333h10.667"></path>
</symbol>
<symbol id="icon-people" viewBox="0 0 32 32">
	<title>people</title>
	<path fill="none" stroke="#00a2dc" stroke-width="1.0667" stroke-miterlimit="4" stroke-linecap="butt" stroke-linejoin="round" style="stroke: var(--color1, #00a2dc)" d="M5.333 16.667c1.472 0 2.667-1.195 2.667-2.667s-1.195-2.667-2.667-2.667c-1.472 0-2.667 1.195-2.667 2.667s1.195 2.667 2.667 2.667z"></path>
	<path fill="none" stroke="#00a2dc" stroke-width="1.0667" stroke-miterlimit="4" stroke-linecap="butt" stroke-linejoin="round" style="stroke: var(--color1, #00a2dc)" d="M5.333 19.333h4.667c0 3.551-0.333 6-2.667 6.6v5.4h-4v-5.4c-2.333-0.6-2.667-3.049-2.667-6.6h4.667z"></path>
	<path fill="none" stroke="#00a2dc" stroke-width="1.0667" stroke-miterlimit="4" stroke-linecap="butt" stroke-linejoin="round" style="stroke: var(--color1, #00a2dc)" d="M26.667 16.667c1.472 0 2.667-1.195 2.667-2.667s-1.195-2.667-2.667-2.667c-1.472 0-2.667 1.195-2.667 2.667s1.195 2.667 2.667 2.667z"></path>
	<path fill="none" stroke="#00a2dc" stroke-width="1.0667" stroke-miterlimit="4" stroke-linecap="butt" stroke-linejoin="round" style="stroke: var(--color1, #00a2dc)" d="M26.667 19.333h4.667c0 3.551-0.333 6-2.667 6.6v5.4h-4v-5.4c-2.333-0.6-2.667-3.049-2.667-6.6h4.667z"></path>
	<path fill="none" stroke="#00a2dc" stroke-width="1.0667" stroke-miterlimit="4" stroke-linecap="butt" stroke-linejoin="round" style="stroke: var(--color1, #00a2dc)" d="M16 6c1.472 0 2.667-1.195 2.667-2.667s-1.195-2.667-2.667-2.667c-1.472 0-2.667 1.195-2.667 2.667s1.195 2.667 2.667 2.667z"></path>
	<path fill="none" stroke="#00a2dc" stroke-width="1.0667" stroke-miterlimit="4" stroke-linecap="butt" stroke-linejoin="round" style="stroke: var(--color1, #00a2dc)" d="M16 8.667h4.667c0 3.551-0.333 6-2.667 6.6v5.4h-4v-5.4c-2.333-0.6-2.667-3.049-2.667-6.6h4.667z"></path>
</symbol>
<symbol id="icon-strategy" viewBox="0 0 28 30">
	<title>strategy</title>
	<path fill="#00A2DC" d="M27,1.5h-5c-0.276,0-0.5,0.224-0.5,0.5s0.224,0.5,0.5,0.5h4.5v10.25h-7V7.5h2.75v2
		c0,0.276,0.224,0.5,0.5,0.5s0.5-0.224,0.5-0.5V7c0-0.276-0.224-0.5-0.5-0.5H19c-0.276,0-0.5,0.224-0.5,0.5v5.75h-2.516
		c-0.268,0-0.484,0.224-0.484,0.5v2.5c0,0.276,0.217,0.5,0.484,0.5c0.269,0,0.485-0.224,0.485-0.5v-2H26.5v6H24
		c-0.276,0-0.5,0.224-0.5,0.5s0.224,0.5,0.5,0.5h2.5v3H24c-0.276,0-0.5,0.224-0.5,0.5s0.224,0.5,0.5,0.5h2.5v3h-5V16.772h2
		c0.276,0,0.5-0.229,0.5-0.512c0-0.282-0.224-0.511-0.5-0.511H21c-0.276,0-0.5,0.229-0.5,0.511V27.75H17c-0.276,0-0.5,0.224-0.5,0.5
		s0.224,0.5,0.5,0.5h10c0.276,0,0.5-0.224,0.5-0.5V2C27.5,1.724,27.276,1.5,27,1.5z"/>
	<path fill="#00A2DC" d="M13,22H8.5v-6.5h3.25c0.276,0,0.5-0.224,0.5-0.5V9.25h3.25c0.276,0,0.5-0.224,0.5-0.5V1.842l2.875,2.905
		c0.193,0.197,0.51,0.198,0.707,0.004c0.196-0.194,0.198-0.511,0.004-0.707l-3.711-3.75c-0.094-0.095-0.221-0.148-0.354-0.148H15.52
		c-0.133,0-0.26,0.053-0.354,0.146l-3.75,3.75c-0.195,0.195-0.195,0.512,0,0.707c0.098,0.098,0.226,0.146,0.354,0.146
		s0.256-0.049,0.354-0.146L15,1.873V8.25h-3.25c-0.276,0-0.5,0.224-0.5,0.5v5.75H8c-0.276,0-0.5,0.224-0.5,0.5v7.5
		C7.5,22.776,7.724,23,8,23h4.5v6.375h1V22.5C13.5,22.224,13.276,22,13,22z"/>
	<path fill="#00A2DC" d="M17.25,24.5c0.276,0,0.5-0.224,0.5-0.5v-5c0-0.276-0.224-0.5-0.5-0.5H11c-0.276,0-0.5,0.224-0.5,0.5
		s0.224,0.5,0.5,0.5h5.75V24C16.75,24.276,16.974,24.5,17.25,24.5z"/>
	<path fill="#00A2DC" d="M9.75,24.5h-4.5V15c0-0.276-0.224-0.5-0.5-0.5s-0.5,0.224-0.5,0.5v10c0,0.276,0.224,0.5,0.5,0.5h4.5V27H1.5
		V12.5h7C8.776,12.5,9,12.276,9,12V7c0-0.276-0.224-0.5-0.5-0.5S8,6.724,8,7v4.5H1.5V1.75h2.077C3.532,1.825,3.5,1.907,3.5,2v6.25
		c0,0.276,0.224,0.5,0.5,0.5s0.5-0.224,0.5-0.5V2c0-0.093-0.032-0.175-0.077-0.25H9.75c0.276,0,0.5-0.224,0.5-0.5
		s-0.224-0.5-0.5-0.5H1c-0.276,0-0.5,0.224-0.5,0.5V27.5C0.5,27.776,0.724,28,1,28h8.75c0.276,0,0.5-0.224,0.5-0.5V25
		C10.25,24.724,10.026,24.5,9.75,24.5z"/>
</symbol>
<symbol id="icon-team" viewBox="0 0 39 32">
	<title>team</title>
	<path fill="none" stroke="#00a2dc" stroke-width="1.0323" stroke-miterlimit="4" stroke-linecap="butt" stroke-linejoin="round" style="stroke: var(--color1, #00a2dc)" d="M13.124 30.37h12.356v-7.334c0-0.815-4.89-3.26-8.964-4.89v-3.26c0 0 1.63-0.57 1.63-4.075 1.133 0 1.63-3.26 0.052-3.26 0-0.346 1.248-2.132 0.763-4.075-0.815-3.26-8.964-3.26-9.779 0-3.431-0.702-0.815 3.605-0.815 4.075-1.63 0-1.134 3.26 0 3.26 0 3.504 1.63 4.075 1.63 4.075v3.26c-4.075 1.63-8.964 4.075-8.964 4.89v7.334h12.092z"></path>
	<path fill="none" stroke="#00a2dc" stroke-width="1.0323" stroke-miterlimit="4" stroke-linecap="round" stroke-linejoin="round" style="stroke: var(--color1, #00a2dc)" d="M29.468 30.846h8.964v-7.334c0-0.815-4.075-1.956-7.334-3.26v-2.445c0 0 1.63-0.456 1.63-3.26 0.908 0 1.262-3.26 0-3.26 0-0.275 1.322-1.739 0.815-3.26-0.815-2.445-7.334-2.445-8.149 0-2.746-0.562-0.815 2.885-0.815 3.26-1.304 0-0.908 3.26 0 3.26 0 2.803 1.63 3.26 1.63 3.26v1.63"></path>
</symbol>
<symbol id="icon-plus" viewBox="0 0 32 32">
	<title>plus</title>
	<g id="Layer_1"><rect x="15" width="2" height="32"/></g>
	<g id="Layer_2"><rect y="15" fill="currentColor" width="32" height="2"/></g>
</symbol>
<symbol id="icon-chevron" viewBox="0 0 14 32">
	<title>chevron</title>
	<path d="M4 6l-4 4 6 6-6 6 4 4 10-10-10-10z"></path>
</symbol>
</defs>
</svg>
